
		<svg xmlns="http://www.w3.org/2000/svg" xmlns:xlink="http://www.w3.org/1999/xlink" version="1.1" width="3256.9685673964464" height="2073.9140791413993">
			
			<g transform="scale(12.848428369822322) translate(10, 10)">
				<defs id="SvgjsDefs1290"></defs><g id="SvgjsG1291" featureKey="root" fill="#ffffff" transform="matrix(1,0,0,1,0,0)"></g><g id="SvgjsG1292" featureKey="symbol1" fill="#312c2f" transform="matrix(0.7446808510638298,0,0,0.7446808510638298,82,4.977660483502327)"><title>08</title><path d="M96.65,46c.29-2.15.35-3.45.35-3.45s0,.23-.13.64c0-.21,0-.42,0-.64,0-18.62-21.06-33.77-46.94-33.77S3,23.9,3,42.52a24.72,24.72,0,0,0,1,6.79C6.45,62.7,15.79,91.25,50,91.25c37.44,0,45.13-34.18,46.64-45.29ZM49.94,12.49c23.82,0,43.2,13.47,43.2,30s-19.38,30-43.2,30-43.2-13.47-43.2-30S26.12,12.49,49.94,12.49Z" transform="translate(-3 -8.75)"></path><path d="M52.45,38.32l.23.09a2,2,0,0,0,2-.25L70.42,26.47A2,2,0,0,0,70.09,23a46,46,0,0,0-16.79-4.2,2,2,0,0,0-2.11,2v15.6A2,2,0,0,0,52.45,38.32Z" transform="translate(-3 -8.75)"></path><path d="M29.65,26.47,45.43,38.16a2,2,0,0,0,2,.25l.23-.09a2,2,0,0,0,1.26-1.87V20.85a2,2,0,0,0-2.11-2A46,46,0,0,0,30,23,2,2,0,0,0,29.65,26.47Z" transform="translate(-3 -8.75)"></path><path d="M53.22,64.56A46,46,0,0,0,70,60.35a2,2,0,0,0,.32-3.44L54.55,45.23a2,2,0,0,0-2-.25l-.23.09a2,2,0,0,0-1.26,1.87v15.6A2,2,0,0,0,53.22,64.56Z" transform="translate(-3 -8.75)"></path><path d="M47.52,45.07,47.29,45a2,2,0,0,0-2,.25L29.56,56.91a2,2,0,0,0,.32,3.44,46,46,0,0,0,16.79,4.2,2,2,0,0,0,2.11-2V46.94A2,2,0,0,0,47.52,45.07Z" transform="translate(-3 -8.75)"></path><path d="M18.17,39.78l25.54.54s.81,0,.95-.22a.54.54,0,0,0-.26-.81L25.57,27.78a3.21,3.21,0,0,0-3.84.35,22.65,22.65,0,0,0-5.88,8.25A2.52,2.52,0,0,0,18.17,39.78Z" transform="translate(-3 -8.75)"></path><path d="M22.94,56a3.18,3.18,0,0,0,3.83.13l18-12.6A.8.8,0,0,0,45,42.46l0,0a1.54,1.54,0,0,0-1.33-.68L17,42.72a1.71,1.71,0,0,0-1.61,2.12C16.74,50.29,20.57,54.12,22.94,56Z" transform="translate(-3 -8.75)"></path><path d="M55.38,39.91c.14.26.95.22.95.22l25.54-.54a2.52,2.52,0,0,0,2.32-3.39,22.65,22.65,0,0,0-5.88-8.25,3.21,3.21,0,0,0-3.84-.35L55.64,39.1A.54.54,0,0,0,55.38,39.91Z" transform="translate(-3 -8.75)"></path><path d="M83,42.46l-26.62-1a1.54,1.54,0,0,0-1.33.68l0,0a.8.8,0,0,0,.21,1.11l18,12.6a3.18,3.18,0,0,0,3.83-.13c2.37-1.93,6.2-5.75,7.56-11.21A1.71,1.71,0,0,0,83,42.46Z" transform="translate(-3 -8.75)"></path></g><g id="SvgjsG1293" featureKey="text1" fill="#312c2f" transform="matrix(4.189943665292319,0,0,4.189943665292319,1.6480450178181236,51.53073434912068)"><path d="M0.8 20 l0 -14 l3.48 0 c2.2 0 3.28 1.22 3.28 3.46 l0 7.08 c0 2.24 -1.08 3.46 -3.28 3.46 l-3.48 0 z M4.24 8 l-1.24 0 l0 10 l1.24 0 c0.7 0 1.12 -0.36 1.12 -1.36 l0 -7.28 c0 -1 -0.42 -1.36 -1.12 -1.36 z M13.84 6 l2.24 14 l-2.22 0 l-0.38 -2.54 l-2.7 0 l-0.38 2.54 l-2.02 0 l2.24 -14 l3.22 0 z M12.1 8.48 l-1.04 7.08 l2.12 0 l-1.04 -7.08 l-0.04 0 z M20.42 6 c2.28 0 3.26 1.06 3.26 3.22 l0 0.5 c0 1.44 -0.44 2.34 -1.42 2.8 l0 0.04 c1.18 0.46 1.64 1.5 1.64 2.98 l0 1.14 c0 2.16 -1.14 3.32 -3.34 3.32 l-3.46 0 l0 -14 l3.32 0 z M20.28 13.7 l-0.98 0 l0 4.3 l1.26 0 c0.74 0 1.14 -0.34 1.14 -1.38 l0 -1.22 c0 -1.3 -0.42 -1.7 -1.42 -1.7 z M20.36 8 l-1.06 0 l0 3.7 l0.86 0 c0.82 0 1.32 -0.36 1.32 -1.48 l0 -0.78 c0 -1 -0.34 -1.44 -1.12 -1.44 z M28.540000000000003 6 c2.28 0 3.26 1.06 3.26 3.22 l0 0.5 c0 1.44 -0.44 2.34 -1.42 2.8 l0 0.04 c1.18 0.46 1.64 1.5 1.64 2.98 l0 1.14 c0 2.16 -1.14 3.32 -3.34 3.32 l-3.46 0 l0 -14 l3.32 0 z M28.400000000000002 13.7 l-0.98 0 l0 4.3 l1.26 0 c0.74 0 1.14 -0.34 1.14 -1.38 l0 -1.22 c0 -1.3 -0.42 -1.7 -1.42 -1.7 z M28.48 8 l-1.06 0 l0 3.7 l0.86 0 c0.82 0 1.32 -0.36 1.32 -1.48 l0 -0.78 c0 -1 -0.34 -1.44 -1.12 -1.44 z M33.34 20 l0 -14 l2.2 0 l0 12 l3.62 0 l0 2 l-5.82 0 z M40.120000000000005 17.88 l2.12 0 l0 2.12 l-2.12 0 l0 -2.12 z M43.84 20 l0 -14 l2.2 0 l0 14 l-2.2 0 z M49.660000000000004 9.22 l0 7.56 c0 1 0.44 1.38 1.14 1.38 s1.14 -0.38 1.14 -1.38 l0 -7.56 c0 -1 -0.44 -1.38 -1.14 -1.38 s-1.14 0.38 -1.14 1.38 z M47.46 16.64 l0 -7.28 c0 -2.24 1.18 -3.52 3.34 -3.52 s3.34 1.28 3.34 3.52 l0 7.28 c0 2.24 -1.18 3.52 -3.34 3.52 s-3.34 -1.28 -3.34 -3.52 z"></path></g>
			</g>
		</svg>
	